# xmcd
#
# Track frame offsets:
#	150
#	15357
#	32417
#	47318
#	61553
#	76592
#	92410
#	107738
#	124250
#	138305
#	152905
#	167903
#	181025
#	191967
#	204405
#	222235
#	242425
#	255698
#	274148
#	287397
#	302525
#	318042
#
# Disc length: 4440 seconds
#
# Revision: 0
# Processed by: cddbd v1.5.2PL0 Copyright (c) Steve Scherf et al.
# Submitted via: EasyCDDAExtractor 7.1.2.1
#
DISCID=11115616
DTITLE=Various Artist - TM Century - GoldDisc 1163
DYEAR=1900
DGENRE=Country
TTITLE0=Mark Collie - Hard Lovin' Woman
TTITLE1=Aaron Tippin - I Got It Honest
TTITLE2=Mavericks - There Goes My Heart
TTITLE3=Rick Trevino - Doctor Time
TTITLE4=John Berry - You And Only You [Edut Version]
TTITLE5=Diamond Rio - Night Is Fallin' In My Heart
TTITLE6=Martina McBride - Heart Trouble
TTITLE7=Doug Stone - Little Houses
TTITLE8=Patty Loveless - Here I Am
TTITLE9=Wade Hayes - Old Enough To Know Better [Radio Edit]
TTITLE10=Brooks and Dunn - I'll Never Forgive My Heart
TTITLE11=Pam Tillis - Mi Vida Loca
TTITLE12=Tracy Byrd - The First Step
TTITLE13=Sawyer Brown - This Time
TTITLE14=Alan Jackson - Gone Country
TTITLE15=Toby Keith - Upstairs Downtown
TTITLE16=Collin Raye - My Kind Of Girl
TTITLE17=Travis Tritt - Between And Old Memory And Me
TTITLE18=Mary Chapin Carpenter - Tender When I Want To Me
TTITLE19=John Anderson - Bend It Until It Breaks [Radio Edit]
TTITLE20=Neal McCoy - For A Change
TTITLE21=George Strait - You Can't Make A Heart Love Somebody
EXTD=
EXTT0=
EXTT1=
EXTT2=
EXTT3=
EXTT4=
EXTT5=
EXTT6=
EXTT7=
EXTT8=
EXTT9=
EXTT10=
EXTT11=
EXTT12=
EXTT13=
EXTT14=
EXTT15=
EXTT16=
EXTT17=
EXTT18=
EXTT19=
EXTT20=
EXTT21=
PLAYORDER=
